<svg width="100%" height="100%" id="svg" viewBox="0 0 1440 700" xmlns="http://www.w3.org/2000/svg">
    <defs>
        <linearGradient id="gradient" x1="18%" y1="12%" x2="82%" y2="88%">
            <stop offset="5%" stop-color="#043a8a"></stop>
            <stop offset="95%" stop-color="#db469f"></stop>
        </linearGradient>
    </defs>
    <path d="M 0,700 C 0,700 0,233 0,233 C 30.234003383504444,232.4685550767788 60.46800676700889,231.93711015355763 84,222 C 107.53199323299111,212.06288984644237 124.3619763154689,192.7201144625483 143,185 C 161.6380236845311,177.2798855374517 182.08408797111557,181.1824319962492 204,205 C 225.91591202888443,228.8175680037508 249.30167180006902,272.55015755245483 279,278 C 308.698328199931,283.44984244754517 344.70922482860846,250.61693779393138 367,253 C 389.29077517139154,255.38306220606862 397.8614288854972,292.98209127181974 419,287 C 440.1385711145028,281.01790872818026 473.8450596294027,231.4546971187897 502,191 C 530.1549403705973,150.5453028812103 552.7583325968918,119.19912025302139 578,157 C 603.2416674031082,194.8008797469786 631.1216099830301,301.7488218691246 656,302 C 680.8783900169699,302.2511781308754 702.7552274709877,195.80559227048033 723,194 C 743.2447725290123,192.19440772951967 761.8574801330185,295.02880904895414 786,316 C 810.1425198669815,336.97119095104586 839.8148519969383,276.07917153370306 864,275 C 888.1851480030617,273.92082846629694 906.8831118792281,332.6545048162337 930,314 C 953.1168881207719,295.3454951837663 980.6527004861489,199.30280920136224 1008,181 C 1035.347299513851,162.69719079863776 1062.5060861761763,222.13425837831744 1083,239 C 1103.4939138238237,255.86574162168256 1117.322954809146,230.16015728536794 1145,210 C 1172.677045190854,189.83984271463206 1214.2020945872391,175.22511248021064 1237,167 C 1259.7979054127609,158.77488751978936 1263.868666841897,156.9393927937894 1282,180 C 1300.131333158103,203.0606072062106 1332.3232380451723,251.01731634463158 1361,264 C 1389.6767619548277,276.9826836553684 1414.8383809774139,254.9913418276842 1440,233 C 1440,233 1440,700 1440,700 Z"
          stroke="none" stroke-width="0" fill="url(#gradient)" fill-opacity="0.3"
          class="transition-all duration-300 ease-in-out delay-150 path-0"></path>
    <defs>
        <linearGradient id="gradient" x1="18%" y1="12%" x2="82%" y2="88%">
            <stop offset="5%" stop-color="#043a8a"></stop>
            <stop offset="95%" stop-color="#db469f"></stop>
        </linearGradient>
    </defs>
    <path d="M 0,700 C 0,700 0,466 0,466 C 27.15125382474536,477.1127314578073 54.30250764949072,488.2254629156145 75,487 C 95.69749235050928,485.7745370843855 109.94122322678248,472.21087979534923 131,456 C 152.05877677321752,439.78912020465077 179.9325994433793,420.93101790298874 206,420 C 232.0674005566207,419.06898209701126 256.32837899970025,436.06504859269586 278,433 C 299.67162100029975,429.93495140730414 318.7538845578196,406.8087877262277 346,406 C 373.2461154421804,405.1912122737723 408.65608276902134,426.6998005023935 435,443 C 461.34391723097866,459.3001994976065 478.62178436609497,470.3920102641984 501,476 C 523.378215633905,481.6079897358016 550.8567797665988,481.7321584408127 578,496 C 605.1432202334012,510.2678415591873 631.9510965675099,538.6793559725508 658,515 C 684.0489034324901,491.32064402744925 709.3388339633615,415.5504176689841 728,389 C 746.6611660366385,362.4495823310159 758.6935675790442,385.1189733515128 781,390 C 803.3064324209558,394.8810266484872 835.8868957204616,381.9736889249649 862,399 C 888.1131042795384,416.0263110750351 907.75884953911,462.9862709486277 934,482 C 960.24115046089,501.0137290513723 993.0777061230983,492.0812272805244 1021,484 C 1048.9222938769017,475.9187727194756 1071.9303259684962,468.6888199292748 1092,453 C 1112.0696740315038,437.3111800707252 1129.200990002917,413.16349300237664 1150,427 C 1170.799009997083,440.83650699762336 1195.2657140198364,492.6572080612187 1221,489 C 1246.7342859801636,485.3427919387813 1273.7361539177361,426.2076747527488 1301,426 C 1328.2638460822639,425.7923252472512 1355.7896703092183,484.51209292778606 1379,501 C 1402.2103296907817,517.4879070722139 1421.1051648453908,491.74395353610697 1440,466 C 1440,466 1440,700 1440,700 Z"
          stroke="none" stroke-width="0" fill="url(#gradient)" fill-opacity="0.7"></path>
</svg>